<?xml version="1.0" encoding="utf-8" ?>
<svg baseProfile="tiny" height="64px" version="1.2" width="64px" xmlns="http://www.w3.org/2000/svg" xmlns:ev="http://www.w3.org/2001/xml-events" xmlns:xlink="http://www.w3.org/1999/xlink"><defs /><path d="M 32.50,10.00 L 32.50,9.00 L 32.50,8.00 L 32.50,7.00 L 32.00,6.50 L 31.50,7.00 L 31.50,8.00 L 31.50,9.00 L 31.50,10.00 L 32.00,10.50 L 32.50,10.00 Z" fill="none" stroke="#d4af37" stroke-width="1" /><path d="M 32.50,21.00 L 32.00,20.50 L 31.50,21.00 L 32.00,21.50 L 32.50,21.00 Z" fill="none" stroke="#d4af37" stroke-width="1" /><path d="M 32.50,32.00 L 32.00,31.50 L 31.50,32.00 L 32.00,32.50 L 32.50,32.00 Z" fill="none" stroke="#d4af37" stroke-width="1" /><path d="M 2.50,35.00 L 2.00,34.50 L 1.50,35.00 L 2.00,35.50 L 2.50,35.00 Z" fill="none" stroke="#d4af37" stroke-width="1" /><path d="M 5.50,35.00 L 5.00,34.50 L 4.50,35.00 L 5.00,35.50 L 5.50,35.00 Z" fill="none" stroke="#d4af37" stroke-width="1" /><path d="M 16.50,35.00 L 16.00,34.50 L 15.50,35.00 L 16.00,35.50 L 16.50,35.00 Z" fill="none" stroke="#d4af37" stroke-width="1" /><path d="M 19.50,35.00 L 19.00,34.50 L 18.50,35.00 L 19.00,35.50 L 19.50,35.00 Z" fill="none" stroke="#d4af37" stroke-width="1" /><path d="M 29.50,35.00 L 29.00,34.50 L 28.50,35.00 L 29.00,35.50 L 29.50,35.00 Z" fill="none" stroke="#d4af37" stroke-width="1" /><path d="M 32.50,36.00 L 32.50,35.00 L 32.00,34.50 L 31.50,35.00 L 31.50,36.00 Z" fill="none" stroke="#d4af37" stroke-width="1" /><path d="M 43.50,35.00 L 43.00,34.50 L 42.50,35.00 L 43.00,35.50 L 43.50,35.00 Z" fill="none" stroke="#d4af37" stroke-width="1" /></svg>