<?xml version="1.0" encoding="utf-8" ?>
<svg baseProfile="tiny" height="64px" version="1.2" width="64px" xmlns="http://www.w3.org/2000/svg" xmlns:ev="http://www.w3.org/2001/xml-events" xmlns:xlink="http://www.w3.org/1999/xlink"><defs /><path d="M 25.50,7.00 L 26.00,6.50 L 26.50,6.00 L 26.00,5.50 L 25.50,6.00 L 25.00,6.50 L 24.50,7.00 L 25.00,7.50 L 25.50,7.00 Z" fill="none" stroke="#d4af37" stroke-width="1" /><path d="M 28.50,10.00 L 29.00,9.50 L 29.50,9.00 L 29.00,8.50 L 28.50,9.00 L 28.00,9.50 L 27.50,10.00 L 28.00,10.50 L 28.50,10.00 Z" fill="none" stroke="#d4af37" stroke-width="1" /><path d="M 21.50,18.00 L 22.00,17.50 L 22.50,17.00 L 23.00,16.50 L 23.50,16.00 L 24.00,15.50 L 24.50,15.00 L 24.00,14.50 L 23.50,15.00 L 23.00,15.50 L 22.50,16.00 L 22.00,16.50 L 21.50,17.00 L 21.00,17.50 L 20.50,18.00 L 21.00,18.50 L 21.50,18.00 Z" fill="none" stroke="#d4af37" stroke-width="1" /><path d="M 15.50,25.00 L 16.00,24.50 L 16.50,24.00 L 16.00,23.50 L 15.50,24.00 L 15.00,24.50 L 14.50,25.00 L 15.00,25.50 L 15.50,25.00 Z" fill="none" stroke="#d4af37" stroke-width="1" /><path d="M 3.50,32.00 L 4.00,31.50 L 4.50,31.00 L 4.00,30.50 L 3.50,31.00 L 3.00,31.50 L 2.50,32.00 Z" fill="none" stroke="#d4af37" stroke-width="1" /></svg>